<svg width="4217" height="1167" viewBox="0 0 4217 1167" fill="none" xmlns="http://www.w3.org/2000/svg">
<circle cx="256" cy="302.5" r="256" fill="#F97316"/>
<circle cx="818" cy="302.5" r="256" fill="#3B82F6"/>
<circle cx="256" cy="864.5" r="256" fill="#22C55E"/>
<circle cx="818" cy="864.5" r="256" fill="#EF4444"/>
<path d="M1636 942.5C1570 942.5 1513.33 930.833 1466 907.5C1418.67 884.167 1380 853.833 1350 816.5C1320.67 779.167 1299 738.5 1285 694.5C1271 650.5 1264 608.167 1264 567.5V545.5C1264 500.167 1271 455.5 1285 411.5C1299.67 367.5 1322 327.5 1352 291.5C1382 255.5 1420 226.833 1466 205.5C1512.67 183.5 1567.67 172.5 1631 172.5C1697 172.5 1754.33 184.5 1803 208.5C1852.33 231.833 1891.67 265.167 1921 308.5C1950.33 351.167 1968 401.167 1974 458.5H1831C1825.67 425.167 1813.67 397.167 1795 374.5C1777 351.167 1754 333.833 1726 322.5C1698 310.5 1666.33 304.5 1631 304.5C1595 304.5 1563 310.833 1535 323.5C1507 335.5 1483.67 352.833 1465 375.5C1446.33 398.167 1432 424.833 1422 455.5C1412.67 486.167 1408 520.167 1408 557.5C1408 593.5 1412.67 626.833 1422 657.5C1432 688.167 1446.67 715.167 1466 738.5C1485.33 761.167 1509 778.833 1537 791.5C1565.67 804.167 1598.67 810.5 1636 810.5C1690.67 810.5 1736.67 797.167 1774 770.5C1812 743.167 1835 705.167 1843 656.5H1986C1979.33 708.5 1961.67 756.167 1933 799.5C1904.33 842.833 1865 877.5 1815 903.5C1765 929.5 1705.33 942.5 1636 942.5ZM2120.83 923.5V380.5H2259.83V923.5H2120.83ZM2044.83 484.5V380.5H2259.83V484.5H2044.83ZM2171.83 315.5C2144.49 315.5 2124.16 308.5 2110.83 294.5C2098.16 279.833 2091.83 261.833 2091.83 240.5C2091.83 217.833 2098.16 199.5 2110.83 185.5C2124.16 171.5 2144.49 164.5 2171.83 164.5C2199.16 164.5 2219.16 171.5 2231.83 185.5C2244.49 199.5 2250.83 217.833 2250.83 240.5C2250.83 261.833 2244.49 279.833 2231.83 294.5C2219.16 308.5 2199.16 315.5 2171.83 315.5ZM2605.02 940.5C2542.36 940.5 2493.69 919.833 2459.02 878.5C2425.02 837.167 2408.02 775.833 2408.02 694.5V379.5H2547.02V706.5C2547.02 739.833 2556.36 766.5 2575.02 786.5C2593.69 805.833 2619.02 815.5 2651.02 815.5C2683.02 815.5 2709.02 805.167 2729.02 784.5C2749.69 763.833 2760.02 735.833 2760.02 700.5V379.5H2899.02V923.5H2789.02V692.5H2800.02C2800.02 747.167 2793.02 792.833 2779.02 829.5C2765.02 866.167 2744.02 893.833 2716.02 912.5C2688.02 931.167 2653.02 940.5 2611.02 940.5H2605.02ZM3058.7 923.5V380.5H3168.7V613.5H3158.7C3158.7 558.167 3166.03 512.167 3180.7 475.5C3195.36 438.167 3217.03 410.167 3245.7 391.5C3275.03 372.833 3311.36 363.5 3354.7 363.5H3360.7C3425.36 363.5 3474.36 384.5 3507.7 426.5C3541.03 467.833 3557.7 529.833 3557.7 612.5V923.5H3418.7V600.5C3418.7 567.167 3409.03 540.167 3389.7 519.5C3371.03 498.833 3345.03 488.5 3311.7 488.5C3277.7 488.5 3250.03 499.167 3228.7 520.5C3208.03 541.167 3197.7 569.167 3197.7 604.5V923.5H3058.7ZM4036.13 923.5V762.5H4013.13V583.5C4013.13 552.167 4005.47 528.833 3990.13 513.5C3974.8 498.167 3951.13 490.5 3919.13 490.5C3902.47 490.5 3882.47 490.833 3859.13 491.5C3835.8 492.167 3812.13 493.167 3788.13 494.5C3764.8 495.167 3743.8 496.167 3725.13 497.5V379.5C3740.47 378.167 3757.8 376.833 3777.13 375.5C3796.47 374.167 3816.13 373.5 3836.13 373.5C3856.8 372.833 3876.13 372.5 3894.13 372.5C3950.13 372.5 3996.47 379.833 4033.13 394.5C4070.47 409.167 4098.47 432.167 4117.13 463.5C4136.47 494.833 4146.13 535.833 4146.13 586.5V923.5H4036.13ZM3861.13 937.5C3821.8 937.5 3787.13 930.5 3757.13 916.5C3727.8 902.5 3704.8 882.5 3688.13 856.5C3672.13 830.5 3664.13 799.167 3664.13 762.5C3664.13 722.5 3673.8 689.833 3693.13 664.5C3713.13 639.167 3740.8 620.167 3776.13 607.5C3812.13 594.833 3854.13 588.5 3902.13 588.5H4028.13V671.5H3900.13C3868.13 671.5 3843.47 679.5 3826.13 695.5C3809.47 710.833 3801.13 730.833 3801.13 755.5C3801.13 780.167 3809.47 800.167 3826.13 815.5C3843.47 830.833 3868.13 838.5 3900.13 838.5C3919.47 838.5 3937.13 835.167 3953.13 828.5C3969.8 821.167 3983.47 809.167 3994.13 792.5C4005.47 775.167 4011.8 751.833 4013.13 722.5L4047.13 761.5C4043.8 799.5 4034.47 831.5 4019.13 857.5C4004.47 883.5 3983.8 903.5 3957.13 917.5C3931.13 930.833 3899.13 937.5 3861.13 937.5Z" fill="black"/>
</svg>
